<svg width="29" height="29" viewBox="0 0 29 29" fill="none" xmlns="http://www.w3.org/2000/svg">
<path d="M8.91027 1L1 8.8227M8.91027 1H14.5438M8.91027 1V11.4643M20.1773 1L28 8.8227M20.1773 1H17.3605M20.1773 1V14.5M28 8.8227H17.3605M28 8.8227V14.5438M28 20.2649L20.1773 28M28 20.2649V17.4043M28 20.2649H14.5M20.1773 28V17.273M20.1773 28H14.5M8.91027 28L1 20.2649M8.91027 28V14.1935M8.91027 28H11.727M1 20.2649V14.1935M1 20.2649H11.727M1 8.8227H14.5M1 8.8227V11.4643M14.5438 1L14.5 8.8227M14.5438 1H17.3605M14.5 8.8227H17.3605M17.3605 1V8.8227M1 11.4643H8.91027M1 11.4643V14.1935M8.91027 11.4643V14.1935M1 14.1935H8.91027M20.1773 14.5L28 14.5438M20.1773 14.5V17.273M28 14.5438V17.4043M20.1773 17.273L28 17.4043M11.727 20.2649V28M11.727 20.2649H14.5M11.727 28H14.5M14.5 28V20.2649M14.5 9.62541L9.87351 14.1935L14.5438 19.3746L19.3746 14.1935L14.5 9.62541Z" stroke="#A6A6A6" stroke-width="1.8"/>
</svg>
