<svg width="44" height="44" viewBox="0 0 44 44" fill="none" xmlns="http://www.w3.org/2000/svg">
<circle cx="22" cy="22" r="22" fill="black"/>
<path d="M18.5101 21.9977C18.5101 20.0691 20.0731 18.5053 22.0018 18.5053C23.9304 18.5053 25.4942 20.0691 25.4942 21.9977C25.4942 23.9262 23.9304 25.49 22.0018 25.49C20.0731 25.49 18.5101 23.9262 18.5101 21.9977ZM16.6221 21.9977C16.6221 24.9687 19.0306 27.3771 22.0018 27.3771C24.9729 27.3771 27.3814 24.9687 27.3814 21.9977C27.3814 19.0266 24.9729 16.6183 22.0018 16.6183C19.0306 16.6183 16.6221 19.0266 16.6221 21.9977ZM26.3371 16.405C26.3369 17.0993 26.8995 17.6623 27.5938 17.6626C28.2882 17.6629 28.8513 17.1003 28.8515 16.406C28.8518 15.7117 28.2892 15.1486 27.5948 15.1483C26.9008 15.1487 26.3377 15.711 26.3371 16.405ZM17.7692 30.525C16.7478 30.4785 16.1926 30.3084 15.8237 30.1647C15.3345 29.9742 14.9855 29.7475 14.6186 29.381C14.2517 29.0146 14.0245 28.666 13.8349 28.1769C13.6911 27.8081 13.521 27.2528 13.4746 26.2314C13.4238 25.1271 13.4136 24.7954 13.4136 21.9978C13.4136 19.2001 13.4246 18.8693 13.4746 17.7641C13.5211 16.7427 13.6925 16.1885 13.8349 15.8187C14.0254 15.3295 14.2522 14.9806 14.6186 14.6136C14.985 14.2467 15.3337 14.0196 15.8237 13.83C16.1924 13.6862 16.7478 13.5161 17.7692 13.4696C18.8735 13.4188 19.2053 13.4087 22.0018 13.4087C24.7983 13.4087 25.1303 13.4197 26.2356 13.4696C27.257 13.5162 27.8112 13.6875 28.1811 13.83C28.6702 14.0196 29.0192 14.2472 29.3862 14.6136C29.7531 14.9801 29.9794 15.3295 30.1698 15.8187C30.3136 16.1874 30.4838 16.7427 30.5302 17.7641C30.581 18.8693 30.5912 19.2001 30.5912 21.9978C30.5912 24.7954 30.581 25.1262 30.5302 26.2314C30.4837 27.2528 30.3127 27.8079 30.1698 28.1769C29.9794 28.666 29.7526 29.015 29.3862 29.381C29.0197 29.7471 28.6702 29.9742 28.1811 30.1647C27.8123 30.3085 27.257 30.4786 26.2356 30.525C25.1312 30.5758 24.7995 30.586 22.0018 30.586C19.204 30.586 18.8732 30.5758 17.7692 30.525ZM17.6825 11.5849C16.5672 11.6357 15.8051 11.8126 15.1395 12.0715C14.4502 12.339 13.8667 12.6978 13.2836 13.2799C12.7005 13.862 12.3427 14.4464 12.0752 15.1357C11.8162 15.8016 11.6394 16.5633 11.5886 17.6786C11.537 18.7956 11.5251 19.1527 11.5251 21.9977C11.5251 24.8427 11.537 25.1998 11.5886 26.3168C11.6394 27.4321 11.8162 28.1937 12.0752 28.8597C12.3427 29.5485 12.7006 30.1336 13.2836 30.7155C13.8666 31.2973 14.4502 31.6556 15.1395 31.9238C15.8063 32.1828 16.5672 32.3596 17.6825 32.4104C18.8001 32.4612 19.1566 32.4739 22.0018 32.4739C24.8469 32.4739 25.204 32.462 26.3211 32.4104C27.4364 32.3596 28.198 32.1828 28.864 31.9238C29.5529 31.6556 30.1368 31.2976 30.7199 30.7155C31.303 30.1333 31.6601 29.5485 31.9283 28.8597C32.1873 28.1937 32.365 27.4321 32.4149 26.3168C32.4657 25.1989 32.4775 24.8427 32.4775 21.9977C32.4775 19.1527 32.4657 18.7956 32.4149 17.6786C32.3641 16.5632 32.1873 15.8012 31.9283 15.1357C31.6601 14.4469 31.3021 13.863 30.7199 13.2799C30.1377 12.6968 29.5529 12.339 28.8649 12.0715C28.198 11.8126 27.4363 11.6349 26.3219 11.5849C25.2048 11.5341 24.8477 11.5215 22.0026 11.5215C19.1575 11.5215 18.8001 11.5333 17.6825 11.5849Z" fill="white"/>
</svg>
