<svg width="44" height="44" viewBox="0 0 44 44" fill="none" xmlns="http://www.w3.org/2000/svg">
<circle cx="22" cy="22" r="22" fill="black"/>
<path d="M19.6711 25.1113C19.6254 25.125 14.6773 26.7439 14.3755 26.7439C13.6804 26.7027 13.5295 26.0031 13.4655 25.3171C13.3969 24.6677 13.4014 23.9543 13.4792 23.1769C13.5661 22.3172 13.7307 21.1145 14.5859 21.1648C14.8054 21.1648 17.6544 22.3492 19.7397 23.1952C20.5217 23.5062 20.5903 24.8324 19.6711 25.1113ZM22.3189 19.9026C22.4012 21.6495 21.1528 22.1205 20.1604 20.5565L15.2993 12.8738C15.2307 12.572 15.313 12.3067 15.5416 12.0781C16.255 11.3235 20.0873 10.258 21.0979 10.5187C21.4409 10.6055 21.6513 10.7976 21.729 11.0949C21.7884 11.4744 22.2549 18.7502 22.3189 19.9026ZM22.2549 27.439C22.2549 27.6494 22.264 32.7621 22.1772 32.9953C22.072 33.2697 21.857 33.4389 21.5232 33.5075C21.0613 33.5852 20.2839 33.4206 19.1909 33.0181C18.1849 32.6477 16.598 32.0349 16.9364 31.0746C17.0645 30.7591 19.287 28.2027 20.4714 26.7942C21.0202 26.0991 22.2915 26.5427 22.2549 27.439ZM30.4956 22.0519C30.2395 22.2211 25.4286 23.3415 25.0948 23.4513L25.1085 23.4239C24.2808 23.6388 23.4896 22.5778 24.043 21.8416C24.2122 21.6724 27.0566 17.6161 27.3722 17.4057C27.61 17.2411 27.8889 17.2319 28.209 17.3783C29.0505 17.7807 30.7288 20.2639 30.834 21.2471C30.8294 21.3797 30.8888 21.7821 30.4956 22.0519ZM30.9574 28.0289C30.834 28.971 28.9224 31.3856 28.0398 31.7331C27.7243 31.852 27.4499 31.8246 27.2304 31.6417C27.0017 31.4816 24.4042 27.2012 24.2625 26.9634C23.764 26.2226 24.5734 25.1433 25.4332 25.4451C25.4332 25.4451 30.4864 27.0777 30.6785 27.2469C30.9163 27.4344 31.0077 27.6951 30.9574 28.0289Z" fill="white"/>
</svg>
