<svg width="274" height="274" viewBox="0 0 274 274" fill="none" xmlns="http://www.w3.org/2000/svg">
<mask id="mask0_18_1036" style="mask-type:alpha" maskUnits="userSpaceOnUse" x="0" y="0" width="274" height="274">
<rect width="274" height="274" fill="#FAD1AB"/>
</mask>
<g mask="url(#mask0_18_1036)">
<path d="M186.377 193.798C185.426 194.94 184.189 195.465 182.667 195.374C181.145 195.275 179.813 194.654 178.671 193.513C177.339 192.181 176.673 190.799 176.673 189.368C176.673 187.945 177.339 186.567 178.671 185.236L226.906 137L178.386 88.1939C177.244 87.2425 176.723 85.9562 176.822 84.335C176.913 82.7215 177.529 81.439 178.671 80.4876C179.813 79.1557 181.145 78.4897 182.667 78.4897C184.189 78.4897 185.521 79.1557 186.663 80.4876L236.896 130.436C238.609 132.338 239.465 134.526 239.465 137C239.465 139.474 238.609 141.662 236.896 143.565L186.377 193.798ZM87.3377 193.513L37.1044 143.565C35.3919 141.662 34.5356 139.474 34.5356 137C34.5356 134.526 35.3919 132.338 37.1044 130.436L87.6231 80.2022C88.5745 79.0605 89.857 78.5354 91.4706 78.6267C93.0917 78.7256 94.378 79.3459 95.3294 80.4876C96.6613 81.6293 97.3273 82.9612 97.3273 84.4834C97.3273 86.0057 96.6613 87.3376 95.3294 88.4793L47.094 137L95.6148 185.806C96.7565 186.758 97.2778 188.04 97.1789 189.654C97.0876 191.275 96.4711 192.561 95.3294 193.513C94.1877 194.845 92.8558 195.511 91.3336 195.511C89.8113 195.511 88.4794 194.845 87.3377 193.513Z" fill="#FAD1AB"/>
</g>
</svg>
