<svg width="286" height="286" viewBox="0 0 286 286" fill="none" xmlns="http://www.w3.org/2000/svg">
<mask id="mask0_18_942" style="mask-type:alpha" maskUnits="userSpaceOnUse" x="0" y="0" width="286" height="286">
<rect width="286" height="286" fill="#FAD1AB"/>
</mask>
<g mask="url(#mask0_18_942)">
<path d="M53.6252 256.208C50.4474 256.208 47.6668 255.017 45.2835 252.633C42.9002 250.25 41.7085 247.469 41.7085 244.292V196.625C41.7085 193.447 42.9002 190.667 45.2835 188.283C47.6668 185.9 50.4474 184.708 53.6252 184.708H77.4585V148.958C77.4585 145.781 78.6502 143 81.0335 140.617C83.4168 138.233 86.1974 137.042 89.3752 137.042H137.042V101.292H113.208C110.031 101.292 107.25 100.1 104.867 97.7167C102.483 95.3334 101.292 92.5528 101.292 89.375V41.7084C101.292 38.5306 102.483 35.75 104.867 33.3667C107.25 30.9834 110.031 29.7917 113.208 29.7917H172.792C175.97 29.7917 178.75 30.9834 181.133 33.3667C183.517 35.75 184.708 38.5306 184.708 41.7084V89.375C184.708 92.5528 183.517 95.3334 181.133 97.7167C178.75 100.1 175.97 101.292 172.792 101.292H148.958V137.042H196.625C199.803 137.042 202.583 138.233 204.967 140.617C207.35 143 208.542 145.781 208.542 148.958V184.708H232.375C235.553 184.708 238.333 185.9 240.717 188.283C243.1 190.667 244.292 193.447 244.292 196.625V244.292C244.292 247.469 243.1 250.25 240.717 252.633C238.333 255.017 235.553 256.208 232.375 256.208H172.792C169.614 256.208 166.833 255.017 164.45 252.633C162.067 250.25 160.875 247.469 160.875 244.292V196.625C160.875 193.447 162.067 190.667 164.45 188.283C166.833 185.9 169.614 184.708 172.792 184.708H196.625V148.958H89.3752V184.708H113.208C116.386 184.708 119.167 185.9 121.55 188.283C123.933 190.667 125.125 193.447 125.125 196.625V244.292C125.125 247.469 123.933 250.25 121.55 252.633C119.167 255.017 116.386 256.208 113.208 256.208H53.6252ZM113.208 89.375H172.792V41.7084H113.208V89.375ZM53.6252 244.292H113.208V196.625H53.6252V244.292ZM172.792 244.292H232.375V196.625H172.792V244.292Z" fill="#FAD1AB"/>
</g>
</svg>
