<svg width="21" height="21" viewBox="0 0 21 21" fill="none" xmlns="http://www.w3.org/2000/svg">
<path d="M6.56649 1L1 6.50487M6.56649 1H10.5308M6.56649 1V8.36378M14.4951 1L20 6.50487M14.4951 1H12.513M14.4951 1V10.5M20 6.50487H12.513M20 6.50487V10.5308M20 14.5568L14.4951 20M20 14.5568V12.5438M20 14.5568H10.5M14.4951 20V12.4514M14.4951 20H10.5M6.56649 20L1 14.5568M6.56649 20V10.2843M6.56649 20H8.54865M1 14.5568V10.2843M1 14.5568H8.54865M1 6.50487H10.5M1 6.50487V8.36378M10.5308 1L10.5 6.50487M10.5308 1H12.513M10.5 6.50487H12.513M12.513 1V6.50487M1 8.36378H6.56649M1 8.36378V10.2843M6.56649 8.36378V10.2843M1 10.2843H6.56649M14.4951 10.5L20 10.5308M14.4951 10.5V12.4514M20 10.5308V12.5438M14.4951 12.4514L20 12.5438M8.54865 14.5568V20M8.54865 14.5568H10.5M8.54865 20H10.5M10.5 20V14.5568M10.5 7.06973L7.24432 10.2843L10.5308 13.9303L13.9303 10.2843L10.5 7.06973Z" stroke="#1C1B1F" stroke-width="1.2"/>
</svg>
