<svg width="44" height="44" viewBox="0 0 44 44" fill="none" xmlns="http://www.w3.org/2000/svg">
<circle cx="22" cy="22" r="22" fill="black"/>
<path d="M29.7079 16.7694C29.6701 16.7127 29.6323 16.6559 29.6323 16.5803C29.4338 14.3207 29.1123 12.827 29.1123 12.827C29.065 12.5717 28.8381 12.3826 28.5829 12.3448L26.7771 12.1273C26.7582 12.1273 26.7488 12.1273 26.7298 12.1273C26.5218 12.1273 26.3517 12.2975 26.3517 12.5055V13.1295C26.3517 13.139 26.3422 13.1484 26.3328 13.1484C26.3233 13.1484 26.3233 13.1484 26.3139 13.139C25.2361 12.1652 24.0165 11.2197 22.674 10.3972C22.4187 10.227 22.1162 10.123 21.7853 10.123C21.4544 10.123 21.1518 10.2176 20.8966 10.3972C14.6662 14.2546 11.2438 20.4944 11.1114 20.8347C11.0736 20.9104 11.0547 21.0049 11.0547 21.0994C11.0547 21.3831 11.2532 21.6289 11.5179 21.6951L13.3048 22.0354C13.5412 22.1016 13.7208 22.3096 13.7492 22.5554C13.7681 22.8674 14.099 29.9392 14.5244 31.7638C14.5906 32.0286 14.8364 32.2271 15.12 32.2271H15.1295C16.1789 32.1987 17.1338 32.1798 18.1643 32.1704H18.1737C18.2021 32.1704 18.2305 32.1704 18.2494 32.1704C18.3628 32.1704 18.4479 32.0758 18.4479 31.9718C18.4479 31.9718 18.4479 31.9718 18.4479 31.9624C18.4101 31.3479 18.3156 29.9392 18.2399 28.4548C18.2399 28.417 18.2305 28.3698 18.2305 28.3319C18.221 28.1996 18.1548 28.0861 18.0508 28.0294C17.5119 27.708 17.1432 27.1313 17.1149 26.4695C17.0203 23.9924 16.9731 21.1278 17.1054 18.8871C17.1149 18.6981 17.2661 18.5468 17.4552 18.5468C17.6538 18.5468 17.8145 18.6981 17.8239 18.8966C17.8239 18.906 17.8239 18.9155 17.8239 18.925C17.7388 20.4187 17.7294 22.1867 17.7578 23.9263C17.7578 24.1626 17.9563 24.3517 18.1926 24.3422C18.429 24.3422 18.6181 24.1437 18.6086 23.9074C18.5803 22.1583 18.5803 20.3809 18.6748 18.8777C18.6843 18.6886 18.8355 18.5373 19.0246 18.5373C19.2232 18.5373 19.3839 18.6886 19.3933 18.8871C19.3933 18.8966 19.3933 18.9061 19.3933 18.9155C19.3083 20.3998 19.2988 22.1583 19.3272 23.8884C19.3272 24.1248 19.5257 24.3139 19.7621 24.3044C19.9984 24.3044 20.1875 24.1059 20.178 23.8695C20.1497 22.1205 20.1591 20.3526 20.2442 18.8682C20.2537 18.6791 20.4049 18.5279 20.594 18.5279C20.7926 18.5279 20.9533 18.6791 20.9627 18.8777C20.9627 18.8871 20.9627 18.8966 20.9627 18.9061C20.8304 21.0805 20.8777 23.8412 20.9627 26.2615V26.2804C20.9627 26.2898 20.9627 26.3087 20.9627 26.3182C20.9627 26.3276 20.9627 26.3371 20.9627 26.3465C20.9627 27.0083 20.6318 27.5945 20.1213 27.9443C20.0268 28.0105 19.97 28.105 19.9606 28.2279C19.9606 28.2279 19.9133 28.5967 20.0835 30.4024C20.1591 31.1871 20.2159 31.7355 20.2442 31.9813C20.2537 32.0758 20.3388 32.1515 20.4333 32.1515C20.49 32.1515 20.5468 32.1515 20.6035 32.1515C20.9438 32.1515 21.3031 32.1515 21.6718 32.1515H21.738H21.8042C22.2674 32.1515 22.7212 32.1515 23.1467 32.1515L24.1583 32.1609C24.2528 32.1609 24.3379 32.0853 24.3474 31.9907C24.5837 29.8352 24.6405 28.625 24.6405 28.625C24.6405 28.5116 24.5554 28.4359 24.4514 28.417L23.2129 28.2469C23.0143 28.209 22.9009 28.0956 22.8631 27.9443C22.8347 27.8592 22.8441 27.7552 22.8441 27.7552C23.3925 20.57 25.7561 18.1497 25.7561 18.1497C25.8222 18.0741 25.8695 18.0457 25.8695 18.0457C25.9357 17.9984 26.0113 17.9701 26.0964 17.9701C26.2571 17.9701 26.3989 18.0741 26.4462 18.2159C26.4462 18.2159 26.4651 18.2632 26.4746 18.3861C26.6826 20.6456 26.5786 24.4935 26.4557 27.4905C26.3517 30.0337 26.2193 32.038 26.2193 32.038C26.2193 32.1231 26.2855 32.1893 26.3706 32.1893C27.0418 32.1987 27.7036 32.2176 28.4032 32.2271H28.4127C28.6963 32.2271 28.9421 32.0286 29.0083 31.7638C29.4338 29.9297 29.7741 22.8674 29.7836 22.5554C29.8119 22.3001 29.9916 22.1016 30.2279 22.0354L32.0148 21.6951C32.2795 21.6289 32.478 21.3831 32.478 21.0994C32.478 21.0049 32.4591 20.9198 32.4213 20.8347C32.374 20.6645 31.4381 18.9344 29.7079 16.7694Z" fill="white"/>
</svg>
