<svg width="21" height="21" viewBox="0 0 21 21" fill="none" xmlns="http://www.w3.org/2000/svg">
<mask id="mask0_130_6851" style="mask-type:alpha" maskUnits="userSpaceOnUse" x="0" y="0" width="21" height="21">
<rect width="21" height="21" fill="#D9D9D9"/>
</mask>
<g mask="url(#mask0_130_6851)">
<path d="M16.625 7.87494L15.5312 5.46869L13.125 4.37494L15.5312 3.28119L16.625 0.874939L17.7188 3.28119L20.125 4.37494L17.7188 5.46869L16.625 7.87494ZM16.625 20.1249L15.5312 17.7187L13.125 16.6249L15.5312 15.5312L16.625 13.1249L17.7188 15.5312L20.125 16.6249L17.7188 17.7187L16.625 20.1249ZM7.875 17.4999L5.6875 12.6874L0.875 10.4999L5.6875 8.31244L7.875 3.49994L10.0625 8.31244L14.875 10.4999L10.0625 12.6874L7.875 17.4999ZM7.875 13.2562L8.75 11.3749L10.6312 10.4999L8.75 9.62494L7.875 7.74369L7 9.62494L5.11875 10.4999L7 11.3749L7.875 13.2562Z" fill="#1C1B1F"/>
</g>
</svg>
