<svg width="443" height="110" viewBox="0 0 443 110" fill="none" xmlns="http://www.w3.org/2000/svg">
<path d="M3.15597 19.0053C15.342 10.2107 46.827 -1.83679 75.2787 20.3298C86.0343 28.0427 115.988 37.9869 149.759 16.0612C160.79 8.74845 190.208 -1.23274 219.628 17.3443C231.865 26.2117 266.586 38.498 307.569 16.7047C320.492 8.6752 353.686 -2.2888 383.072 18.0913C393.793 27.6824 420.727 42.4561 442.695 24.8228" stroke="#171616" stroke-width="7.82305"/>
<path d="M3.15597 55.0728C15.342 46.2782 46.827 34.2307 75.2787 56.3974C86.0343 64.1102 115.988 74.0545 149.759 52.1287C160.79 44.816 190.208 34.8348 219.628 53.4118C231.865 62.2792 266.586 74.5655 307.569 52.7722C320.492 44.7427 353.686 33.7787 383.072 54.1588C393.793 63.7499 420.727 78.5237 442.695 60.8903" stroke="#171616" stroke-width="7.82305"/>
<path d="M3.15597 91.1403C15.342 82.3457 46.827 70.2982 75.2787 92.4649C86.0343 100.178 115.988 110.122 149.759 88.1962C160.79 80.8835 190.208 70.9023 219.628 89.4793C231.865 98.3467 266.586 110.633 307.569 88.8397C320.492 80.8102 353.686 69.8462 383.072 90.2263C393.793 99.8174 420.727 114.591 442.695 96.9578" stroke="#171616" stroke-width="7.82305"/>
</svg>
