<svg width="289" height="289" viewBox="0 0 289 289" fill="none" xmlns="http://www.w3.org/2000/svg">
<mask id="mask0_18_989" style="mask-type:alpha" maskUnits="userSpaceOnUse" x="0" y="0" width="289" height="289">
<rect width="288.343" height="288.343" fill="#FAD1AB"/>
</mask>
<g mask="url(#mask0_18_989)">
<path d="M168.2 246.293C166.398 246.293 164.944 245.744 163.839 244.647C162.741 243.541 162.193 242.088 162.193 240.286C162.193 238.483 162.741 237.03 163.839 235.924C164.944 234.827 166.398 234.278 168.2 234.278C179.613 234.278 189.473 231.976 197.779 227.37C206.093 222.765 210.25 217.058 210.25 210.25C210.25 205.044 207.799 200.438 202.897 196.433C197.987 192.429 191.027 189.125 182.016 186.522L191.628 177.511C201.439 180.715 208.996 185.168 214.299 190.871C219.609 196.582 222.264 203.041 222.264 210.25C222.264 221.663 216.557 230.522 205.144 236.825C193.73 243.137 181.415 246.293 168.2 246.293ZM68.4812 159.189C59.6707 155.985 53.0629 152.029 48.6577 147.319C44.2524 142.617 42.0498 137.563 42.0498 132.157C42.0498 125.349 44.8531 119.442 50.4598 114.436C56.0665 109.43 66.2786 103.723 81.0962 97.3156C94.3119 91.5087 103.122 86.9032 107.528 83.4992C111.933 80.0951 114.135 76.2906 114.135 72.0856C114.135 67.2799 111.484 63.0749 106.182 59.4706C100.872 55.8663 93.511 54.0642 84.0998 54.0642C78.4931 54.0642 73.4391 54.9172 68.9378 56.6232C64.4284 58.3212 60.5718 60.7722 57.368 63.976C56.1666 65.1774 54.817 65.8262 53.3192 65.9223C51.8134 66.0264 50.3597 65.5779 48.958 64.5767C47.5563 63.5755 46.8075 62.2739 46.7113 60.672C46.6072 59.0701 47.0558 57.5683 48.0569 56.1667C51.2608 52.1619 56.2186 48.8059 62.9306 46.0987C69.6346 43.3995 76.691 42.0499 84.0998 42.0499C96.5146 42.0499 106.627 44.9053 114.436 50.6161C122.245 56.3189 126.15 63.4754 126.15 72.0856C126.15 78.8937 123.395 84.9489 117.884 90.2512C112.381 95.5615 101.721 101.621 85.9019 108.429C73.4872 113.635 65.0772 117.988 60.6719 121.488C56.2667 124.997 54.0641 128.553 54.0641 132.157C54.0641 135.561 56.0184 138.813 59.9271 141.913C63.8277 145.02 69.6827 147.776 77.4919 150.178L68.4812 159.189ZM218.96 109.33L188.023 78.3931L198.536 67.8806C201.539 64.877 204.996 63.3232 208.904 63.2191C212.805 63.1229 216.357 64.6768 219.561 67.8806L229.473 77.7924C232.676 80.9962 234.23 84.5484 234.134 88.4491C234.03 92.3577 232.476 95.8138 229.473 98.8174L218.96 109.33ZM69.983 227.37H83.7994L181.415 129.754L167.599 115.938L69.983 213.554V227.37ZM63.0748 239.384C61.6731 239.384 60.4717 238.884 59.4705 237.883C58.4693 236.881 57.9687 235.68 57.9687 234.278V210.55C57.9687 210.35 58.4693 209.149 59.4705 206.946L167.599 98.8174L198.536 129.754L90.4073 237.883C90.2071 238.083 89.0056 238.584 86.803 239.384H63.0748Z" fill="#FAD1AB"/>
</g>
</svg>
