<svg width="280" height="308" viewBox="0 0 280 308" fill="none" xmlns="http://www.w3.org/2000/svg">
<mask id="mask0_18_963" style="mask-type:alpha" maskUnits="userSpaceOnUse" x="2" y="34" width="270" height="269">
<rect x="2.72559" y="34.0708" width="268.478" height="268.478" fill="#FAD1AB"/>
</mask>
<g mask="url(#mask0_18_963)">
<path d="M93.6164 219.209C96.0401 219.209 98.0463 218.37 99.6348 216.692C101.216 215.014 102.006 212.963 102.006 210.539C102.006 208.116 101.216 206.065 99.6348 204.387C98.0463 202.709 96.0401 201.87 93.6164 201.87C91.0062 201.87 88.9068 202.709 87.3183 204.387C85.7373 206.065 84.9468 208.116 84.9468 210.539C84.9468 212.963 85.7858 215.014 87.4638 216.692C89.1417 218.37 91.1926 219.209 93.6164 219.209ZM93.6164 176.98C96.0401 176.98 98.0463 176.141 99.6348 174.463C101.216 172.785 102.006 170.734 102.006 168.31C102.006 165.886 101.216 163.835 99.6348 162.157C98.0463 160.479 96.0401 159.641 93.6164 159.641C91.0062 159.641 88.9068 160.479 87.3183 162.157C85.7373 163.835 84.9468 165.886 84.9468 168.31C84.9468 170.734 85.7858 172.785 87.4638 174.463C89.1417 176.141 91.1926 176.98 93.6164 176.98ZM93.6164 134.75C96.0401 134.75 98.0463 133.911 99.6348 132.233C101.216 130.555 102.006 128.505 102.006 126.081C102.006 123.657 101.216 121.606 99.6348 119.928C98.0463 118.25 96.0401 117.411 93.6164 117.411C91.0062 117.411 88.9068 118.25 87.3183 119.928C85.7373 121.606 84.9468 123.657 84.9468 126.081C84.9468 128.505 85.7858 130.555 87.4638 132.233C89.1417 133.911 91.1926 134.75 93.6164 134.75ZM133.608 216.133H182.55C184.228 216.133 185.581 215.573 186.61 214.455C187.632 213.336 188.143 212.031 188.143 210.539C188.143 208.861 187.632 207.508 186.61 206.479C185.581 205.457 184.228 204.946 182.55 204.946H133.608C131.93 204.946 130.581 205.457 129.559 206.479C128.53 207.508 128.015 208.861 128.015 210.539C128.015 212.031 128.53 213.336 129.559 214.455C130.581 215.573 131.93 216.133 133.608 216.133ZM133.608 173.903H182.55C184.228 173.903 185.581 173.344 186.61 172.225C187.632 171.107 188.143 169.802 188.143 168.31C188.143 166.632 187.632 165.279 186.61 164.249C185.581 163.228 184.228 162.717 182.55 162.717H133.608C131.93 162.717 130.581 163.276 129.559 164.395C128.53 165.513 128.015 166.819 128.015 168.31C128.015 169.988 128.53 171.342 129.559 172.371C130.581 173.393 131.93 173.903 133.608 173.903ZM133.608 131.674H182.55C184.228 131.674 185.581 131.159 186.61 130.13C187.632 129.109 188.143 127.759 188.143 126.081C188.143 124.589 187.632 123.284 186.61 122.165C185.581 121.047 184.228 120.487 182.55 120.487H133.608C131.93 120.487 130.581 121.047 129.559 122.165C128.53 123.284 128.015 124.589 128.015 126.081C128.015 127.759 128.53 129.109 129.559 130.13C130.581 131.159 131.93 131.674 133.608 131.674Z" fill="#FAD1AB"/>
</g>
<mask id="mask1_18_963" style="mask-type:alpha" maskUnits="userSpaceOnUse" x="0" y="0" width="280" height="308">
<rect width="279.381" height="308" fill="#FAD1AB"/>
</mask>
<g mask="url(#mask1_18_963)">
<path d="M139.69 67.0542C142.407 67.0542 144.638 66.0917 146.384 64.1667C148.13 62.2417 149.003 59.7819 149.003 56.7875C149.003 53.7931 148.13 51.3333 146.384 49.4083C144.638 47.4833 142.407 46.5208 139.69 46.5208C136.974 46.5208 134.743 47.4833 132.997 49.4083C131.251 51.3333 130.378 53.7931 130.378 56.7875C130.378 59.7819 131.251 62.2417 132.997 64.1667C134.743 66.0917 136.974 67.0542 139.69 67.0542ZM65.4799 256.667C60.2415 256.667 55.7792 254.635 52.0929 250.571C48.4066 246.507 46.5635 241.587 46.5635 235.812V72.1875C46.5635 66.4125 48.4066 61.4931 52.0929 57.4292C55.7792 53.3653 60.2415 51.3333 65.4799 51.3333H119.319C120.483 46.4139 122.908 42.2431 126.594 38.8208C130.281 35.3986 134.646 33.6875 139.69 33.6875C144.735 33.6875 149.147 35.3986 152.926 38.8208C156.713 42.2431 159.092 46.4139 160.062 51.3333H213.901C219.139 51.3333 223.601 53.3653 227.288 57.4292C230.974 61.4931 232.817 66.4125 232.817 72.1875V235.812C232.817 241.587 230.974 246.507 227.288 250.571C223.601 254.635 219.139 256.667 213.901 256.667H65.4799ZM65.4799 243.833H213.901C215.841 243.833 217.537 243.029 218.988 241.421C220.447 239.821 221.176 237.951 221.176 235.812V72.1875C221.176 70.0486 220.447 68.1792 218.988 66.5793C217.537 64.9709 215.841 64.1667 213.901 64.1667H186.254V72.1875C186.254 77.7486 184.411 82.5611 180.724 86.625C177.038 90.6889 172.576 92.7208 167.337 92.7208H112.043C106.805 92.7208 102.343 90.6889 98.6563 86.625C94.97 82.5611 93.1269 77.7486 93.1269 72.1875V64.1667H65.4799C63.5397 64.1667 61.844 64.9709 60.3928 66.5793C58.9338 68.1792 58.2043 70.0486 58.2043 72.1875V235.812C58.2043 237.951 58.9338 239.821 60.3928 241.421C61.844 243.029 63.5397 243.833 65.4799 243.833Z" fill="#FAD1AB"/>
</g>
</svg>
